<svg id="visual" viewBox="0 0 900 600" width="900" height="600" xmlns="http://www.w3.org/2000/svg" xmlns:xlink="http://www.w3.org/1999/xlink" version="1.1"><rect x="0" y="0" width="900" height="600" fill="#001220"></rect><path d="M0 196L21.5 191.2C43 186.3 86 176.7 128.8 176.2C171.7 175.7 214.3 184.3 257.2 182C300 179.7 343 166.3 385.8 175.3C428.7 184.3 471.3 215.7 514.2 225.5C557 235.3 600 223.7 642.8 210.3C685.7 197 728.3 182 771.2 177.3C814 172.7 857 178.3 878.5 181.2L900 184L900 0L878.5 0C857 0 814 0 771.2 0C728.3 0 685.7 0 642.8 0C600 0 557 0 514.2 0C471.3 0 428.7 0 385.8 0C343 0 300 0 257.2 0C214.3 0 171.7 0 128.8 0C86 0 43 0 21.5 0L0 0Z" fill="#8e2922"></path><path d="M0 147L21.5 148.2C43 149.3 86 151.7 128.8 161.3C171.7 171 214.3 188 257.2 188.5C300 189 343 173 385.8 161.7C428.7 150.3 471.3 143.7 514.2 142.7C557 141.7 600 146.3 642.8 148.5C685.7 150.7 728.3 150.3 771.2 155.2C814 160 857 170 878.5 175L900 180L900 0L878.5 0C857 0 814 0 771.2 0C728.3 0 685.7 0 642.8 0C600 0 557 0 514.2 0C471.3 0 428.7 0 385.8 0C343 0 300 0 257.2 0C214.3 0 171.7 0 128.8 0C86 0 43 0 21.5 0L0 0Z" fill="#822520"></path><path d="M0 120L21.5 121.5C43 123 86 126 128.8 132.2C171.7 138.3 214.3 147.7 257.2 148.8C300 150 343 143 385.8 140.5C428.7 138 471.3 140 514.2 140C557 140 600 138 642.8 139.5C685.7 141 728.3 146 771.2 141.7C814 137.3 857 123.7 878.5 116.8L900 110L900 0L878.5 0C857 0 814 0 771.2 0C728.3 0 685.7 0 642.8 0C600 0 557 0 514.2 0C471.3 0 428.7 0 385.8 0C343 0 300 0 257.2 0C214.3 0 171.7 0 128.8 0C86 0 43 0 21.5 0L0 0Z" fill="#77221d"></path><path d="M0 92L21.5 94.3C43 96.7 86 101.3 128.8 99.7C171.7 98 214.3 90 257.2 82.7C300 75.3 343 68.7 385.8 69C428.7 69.3 471.3 76.7 514.2 76.2C557 75.7 600 67.3 642.8 71.8C685.7 76.3 728.3 93.7 771.2 98.2C814 102.7 857 94.3 878.5 90.2L900 86L900 0L878.5 0C857 0 814 0 771.2 0C728.3 0 685.7 0 642.8 0C600 0 557 0 514.2 0C471.3 0 428.7 0 385.8 0C343 0 300 0 257.2 0C214.3 0 171.7 0 128.8 0C86 0 43 0 21.5 0L0 0Z" fill="#6c1f1b"></path><path d="M0 68L21.5 68.3C43 68.7 86 69.3 128.8 68.5C171.7 67.7 214.3 65.3 257.2 59.5C300 53.7 343 44.3 385.8 41.7C428.7 39 471.3 43 514.2 49C557 55 600 63 642.8 59.2C685.7 55.3 728.3 39.7 771.2 32C814 24.3 857 24.7 878.5 24.8L900 25L900 0L878.5 0C857 0 814 0 771.2 0C728.3 0 685.7 0 642.8 0C600 0 557 0 514.2 0C471.3 0 428.7 0 385.8 0C343 0 300 0 257.2 0C214.3 0 171.7 0 128.8 0C86 0 43 0 21.5 0L0 0Z" fill="#611c18"></path></svg>