<svg id="visual" viewBox="0 0 900 600" width="900" height="600" xmlns="http://www.w3.org/2000/svg" xmlns:xlink="http://www.w3.org/1999/xlink" version="1.1"><path d="M0 302L18.8 296.5C37.7 291 75.3 280 112.8 272.2C150.3 264.3 187.7 259.7 225.2 263.7C262.7 267.7 300.3 280.3 337.8 281.3C375.3 282.3 412.7 271.7 450.2 271.8C487.7 272 525.3 283 562.8 288.7C600.3 294.3 637.7 294.7 675.2 297C712.7 299.3 750.3 303.7 787.8 301.8C825.3 300 862.7 292 881.3 288L900 284L900 0L881.3 0C862.7 0 825.3 0 787.8 0C750.3 0 712.7 0 675.2 0C637.7 0 600.3 0 562.8 0C525.3 0 487.7 0 450.2 0C412.7 0 375.3 0 337.8 0C300.3 0 262.7 0 225.2 0C187.7 0 150.3 0 112.8 0C75.3 0 37.7 0 18.8 0L0 0Z" fill="#843f3a"></path><path d="M0 187L18.8 194.3C37.7 201.7 75.3 216.3 112.8 216.7C150.3 217 187.7 203 225.2 204.3C262.7 205.7 300.3 222.3 337.8 226.8C375.3 231.3 412.7 223.7 450.2 224C487.7 224.3 525.3 232.7 562.8 237.8C600.3 243 637.7 245 675.2 238.5C712.7 232 750.3 217 787.8 214.7C825.3 212.3 862.7 222.7 881.3 227.8L900 233L900 0L881.3 0C862.7 0 825.3 0 787.8 0C750.3 0 712.7 0 675.2 0C637.7 0 600.3 0 562.8 0C525.3 0 487.7 0 450.2 0C412.7 0 375.3 0 337.8 0C300.3 0 262.7 0 225.2 0C187.7 0 150.3 0 112.8 0C75.3 0 37.7 0 18.8 0L0 0Z" fill="#7c3631"></path><path d="M0 146L18.8 151C37.7 156 75.3 166 112.8 166.2C150.3 166.3 187.7 156.7 225.2 152.3C262.7 148 300.3 149 337.8 157.8C375.3 166.7 412.7 183.3 450.2 189.8C487.7 196.3 525.3 192.7 562.8 189.5C600.3 186.3 637.7 183.7 675.2 186.8C712.7 190 750.3 199 787.8 203.2C825.3 207.3 862.7 206.7 881.3 206.3L900 206L900 0L881.3 0C862.7 0 825.3 0 787.8 0C750.3 0 712.7 0 675.2 0C637.7 0 600.3 0 562.8 0C525.3 0 487.7 0 450.2 0C412.7 0 375.3 0 337.8 0C300.3 0 262.7 0 225.2 0C187.7 0 150.3 0 112.8 0C75.3 0 37.7 0 18.8 0L0 0Z" fill="#732e29"></path><path d="M0 126L18.8 128.7C37.7 131.3 75.3 136.7 112.8 134.7C150.3 132.7 187.7 123.3 225.2 118.3C262.7 113.3 300.3 112.7 337.8 116.8C375.3 121 412.7 130 450.2 135.3C487.7 140.7 525.3 142.3 562.8 136.5C600.3 130.7 637.7 117.3 675.2 117.5C712.7 117.7 750.3 131.3 787.8 134C825.3 136.7 862.7 128.3 881.3 124.2L900 120L900 0L881.3 0C862.7 0 825.3 0 787.8 0C750.3 0 712.7 0 675.2 0C637.7 0 600.3 0 562.8 0C525.3 0 487.7 0 450.2 0C412.7 0 375.3 0 337.8 0C300.3 0 262.7 0 225.2 0C187.7 0 150.3 0 112.8 0C75.3 0 37.7 0 18.8 0L0 0Z" fill="#6a2520"></path><path d="M0 90L18.8 89.2C37.7 88.3 75.3 86.7 112.8 86.5C150.3 86.3 187.7 87.7 225.2 88.7C262.7 89.7 300.3 90.3 337.8 87.3C375.3 84.3 412.7 77.7 450.2 72.8C487.7 68 525.3 65 562.8 68.7C600.3 72.3 637.7 82.7 675.2 82.7C712.7 82.7 750.3 72.3 787.8 70.8C825.3 69.3 862.7 76.7 881.3 80.3L900 84L900 0L881.3 0C862.7 0 825.3 0 787.8 0C750.3 0 712.7 0 675.2 0C637.7 0 600.3 0 562.8 0C525.3 0 487.7 0 450.2 0C412.7 0 375.3 0 337.8 0C300.3 0 262.7 0 225.2 0C187.7 0 150.3 0 112.8 0C75.3 0 37.7 0 18.8 0L0 0Z" fill="#611c18"></path></svg>