<svg id="visual" viewBox="0 0 900 600" width="900" height="600" xmlns="http://www.w3.org/2000/svg" xmlns:xlink="http://www.w3.org/1999/xlink" version="1.1"><rect x="0" y="0" width="900" height="600" fill="#001220"></rect><path d="M0 274L21.5 267.3C43 260.7 86 247.3 128.8 246.7C171.7 246 214.3 258 257.2 254.7C300 251.3 343 232.7 385.8 245.5C428.7 258.3 471.3 302.7 514.2 316.5C557 330.3 600 313.7 642.8 294.8C685.7 276 728.3 255 771.2 248.7C814 242.3 857 250.7 878.5 254.8L900 259L900 0L878.5 0C857 0 814 0 771.2 0C728.3 0 685.7 0 642.8 0C600 0 557 0 514.2 0C471.3 0 428.7 0 385.8 0C343 0 300 0 257.2 0C214.3 0 171.7 0 128.8 0C86 0 43 0 21.5 0L0 0Z" fill="#8e2922"></path><path d="M0 206L21.5 207.7C43 209.3 86 212.7 128.8 226.2C171.7 239.7 214.3 263.3 257.2 264C300 264.7 343 242.3 385.8 226.5C428.7 210.7 471.3 201.3 514.2 200C557 198.7 600 205.3 642.8 208.3C685.7 211.3 728.3 210.7 771.2 217.5C814 224.3 857 238.7 878.5 245.8L900 253L900 0L878.5 0C857 0 814 0 771.2 0C728.3 0 685.7 0 642.8 0C600 0 557 0 514.2 0C471.3 0 428.7 0 385.8 0C343 0 300 0 257.2 0C214.3 0 171.7 0 128.8 0C86 0 43 0 21.5 0L0 0Z" fill="#822520"></path><path d="M0 169L21.5 170.8C43 172.7 86 176.3 128.8 184.8C171.7 193.3 214.3 206.7 257.2 208.5C300 210.3 343 200.7 385.8 197.2C428.7 193.7 471.3 196.3 514.2 196.3C557 196.3 600 193.7 642.8 195.8C685.7 198 728.3 205 771.2 199C814 193 857 174 878.5 164.5L900 155L900 0L878.5 0C857 0 814 0 771.2 0C728.3 0 685.7 0 642.8 0C600 0 557 0 514.2 0C471.3 0 428.7 0 385.8 0C343 0 300 0 257.2 0C214.3 0 171.7 0 128.8 0C86 0 43 0 21.5 0L0 0Z" fill="#77221d"></path><path d="M0 130L21.5 133.2C43 136.3 86 142.7 128.8 140.2C171.7 137.7 214.3 126.3 257.2 116C300 105.7 343 96.3 385.8 96.8C428.7 97.3 471.3 107.7 514.2 107C557 106.3 600 94.7 642.8 101C685.7 107.3 728.3 131.7 771.2 138C814 144.3 857 132.7 878.5 126.8L900 121L900 0L878.5 0C857 0 814 0 771.2 0C728.3 0 685.7 0 642.8 0C600 0 557 0 514.2 0C471.3 0 428.7 0 385.8 0C343 0 300 0 257.2 0C214.3 0 171.7 0 128.8 0C86 0 43 0 21.5 0L0 0Z" fill="#6c1f1b"></path><path d="M0 96L21.5 96.3C43 96.7 86 97.3 128.8 96C171.7 94.7 214.3 91.3 257.2 83.3C300 75.3 343 62.7 385.8 59C428.7 55.3 471.3 60.7 514.2 69C557 77.3 600 88.7 642.8 83.3C685.7 78 728.3 56 771.2 45.3C814 34.7 857 35.3 878.5 35.7L900 36L900 0L878.5 0C857 0 814 0 771.2 0C728.3 0 685.7 0 642.8 0C600 0 557 0 514.2 0C471.3 0 428.7 0 385.8 0C343 0 300 0 257.2 0C214.3 0 171.7 0 128.8 0C86 0 43 0 21.5 0L0 0Z" fill="#611c18"></path></svg>