<svg id="visual" viewBox="0 0 540 960" width="540" height="960" xmlns="http://www.w3.org/2000/svg" xmlns:xlink="http://www.w3.org/1999/xlink" version="1.1"><path d="M0 483L11.3 474.3C22.7 465.7 45.3 448.3 67.8 435.8C90.3 423.3 112.7 415.7 135.2 422C157.7 428.3 180.3 448.7 202.8 450.5C225.3 452.3 247.7 435.7 270.2 436C292.7 436.3 315.3 453.7 337.8 462.7C360.3 471.7 382.7 472.3 405.2 476C427.7 479.7 450.3 486.3 472.8 483.2C495.3 480 517.7 467 528.8 460.5L540 454L540 0L528.8 0C517.7 0 495.3 0 472.8 0C450.3 0 427.7 0 405.2 0C382.7 0 360.3 0 337.8 0C315.3 0 292.7 0 270.2 0C247.7 0 225.3 0 202.8 0C180.3 0 157.7 0 135.2 0C112.7 0 90.3 0 67.8 0C45.3 0 22.7 0 11.3 0L0 0Z" fill="#843f3a"></path><path d="M0 299L11.3 310.8C22.7 322.7 45.3 346.3 67.8 347C90.3 347.7 112.7 325.3 135.2 327.3C157.7 329.3 180.3 355.7 202.8 362.8C225.3 370 247.7 358 270.2 358.7C292.7 359.3 315.3 372.7 337.8 380.8C360.3 389 382.7 392 405.2 381.5C427.7 371 450.3 347 472.8 343.3C495.3 339.7 517.7 356.3 528.8 364.7L540 373L540 0L528.8 0C517.7 0 495.3 0 472.8 0C450.3 0 427.7 0 405.2 0C382.7 0 360.3 0 337.8 0C315.3 0 292.7 0 270.2 0C247.7 0 225.3 0 202.8 0C180.3 0 157.7 0 135.2 0C112.7 0 90.3 0 67.8 0C45.3 0 22.7 0 11.3 0L0 0Z" fill="#7c3631"></path><path d="M0 235L11.3 242.8C22.7 250.7 45.3 266.3 67.8 266.5C90.3 266.7 112.7 251.3 135.2 244.5C157.7 237.7 180.3 239.3 202.8 253.5C225.3 267.7 247.7 294.3 270.2 304.7C292.7 315 315.3 309 337.8 304C360.3 299 382.7 295 405.2 300C427.7 305 450.3 319 472.8 325.5C495.3 332 517.7 331 528.8 330.5L540 330L540 0L528.8 0C517.7 0 495.3 0 472.8 0C450.3 0 427.7 0 405.2 0C382.7 0 360.3 0 337.8 0C315.3 0 292.7 0 270.2 0C247.7 0 225.3 0 202.8 0C180.3 0 157.7 0 135.2 0C112.7 0 90.3 0 67.8 0C45.3 0 22.7 0 11.3 0L0 0Z" fill="#732e29"></path><path d="M0 202L11.3 206.3C22.7 210.7 45.3 219.3 67.8 216.2C90.3 213 112.7 198 135.2 190C157.7 182 180.3 181 202.8 187.7C225.3 194.3 247.7 208.7 270.2 217.2C292.7 225.7 315.3 228.3 337.8 218.8C360.3 209.3 382.7 187.7 405.2 188C427.7 188.3 450.3 210.7 472.8 215.2C495.3 219.7 517.7 206.3 528.8 199.7L540 193L540 0L528.8 0C517.7 0 495.3 0 472.8 0C450.3 0 427.7 0 405.2 0C382.7 0 360.3 0 337.8 0C315.3 0 292.7 0 270.2 0C247.7 0 225.3 0 202.8 0C180.3 0 157.7 0 135.2 0C112.7 0 90.3 0 67.8 0C45.3 0 22.7 0 11.3 0L0 0Z" fill="#6a2520"></path><path d="M0 144L11.3 142.7C22.7 141.3 45.3 138.7 67.8 138.7C90.3 138.7 112.7 141.3 135.2 143.2C157.7 145 180.3 146 202.8 141C225.3 136 247.7 125 270.2 117.2C292.7 109.3 315.3 104.7 337.8 110.7C360.3 116.7 382.7 133.3 405.2 133.3C427.7 133.3 450.3 116.7 472.8 114C495.3 111.3 517.7 122.7 528.8 128.3L540 134L540 0L528.8 0C517.7 0 495.3 0 472.8 0C450.3 0 427.7 0 405.2 0C382.7 0 360.3 0 337.8 0C315.3 0 292.7 0 270.2 0C247.7 0 225.3 0 202.8 0C180.3 0 157.7 0 135.2 0C112.7 0 90.3 0 67.8 0C45.3 0 22.7 0 11.3 0L0 0Z" fill="#611c18"></path></svg>