<?xml version="1.0" standalone="no"?>
<svg xmlns:xlink="http://www.w3.org/1999/xlink" id="wave" style="transform:rotate(180deg); transition: 0.3s" viewBox="100 0 1200 490" version="1.1" xmlns="http://www.w3.org/2000/svg"><defs><linearGradient id="sw-gradient-0" x1="0" x2="0" y1="1" y2="0"><stop stop-color="rgba(97, 28, 24, 0.99)" offset="0%"/><stop stop-color="rgba(97, 28, 24, 0.69)" offset="100%"/></linearGradient></defs><path style="transform:translate(0, 0px); opacity:1" fill="url(#sw-gradient-0)" d="M0,147L120,171.5C240,196,480,245,720,228.7C960,212,1200,131,1440,155.2C1680,180,1920,310,2160,310.3C2400,310,2640,180,2880,130.7C3120,82,3360,114,3600,138.8C3840,163,4080,180,4320,179.7C4560,180,4800,163,5040,187.8C5280,212,5520,278,5760,261.3C6000,245,6240,147,6480,155.2C6720,163,6960,278,7200,277.7C7440,278,7680,163,7920,171.5C8160,180,8400,310,8640,375.7C8880,441,9120,441,9360,400.2C9600,359,9840,278,10080,245C10320,212,10560,229,10800,204.2C11040,180,11280,114,11520,81.7C11760,49,12000,49,12240,114.3C12480,180,12720,310,12960,302.2C13200,294,13440,147,13680,73.5C13920,0,14160,0,14400,65.3C14640,131,14880,261,15120,277.7C15360,294,15600,196,15840,187.8C16080,180,16320,261,16560,269.5C16800,278,17040,212,17160,179.7L17280,147L17280,490L17160,490C17040,490,16800,490,16560,490C16320,490,16080,490,15840,490C15600,490,15360,490,15120,490C14880,490,14640,490,14400,490C14160,490,13920,490,13680,490C13440,490,13200,490,12960,490C12720,490,12480,490,12240,490C12000,490,11760,490,11520,490C11280,490,11040,490,10800,490C10560,490,10320,490,10080,490C9840,490,9600,490,9360,490C9120,490,8880,490,8640,490C8400,490,8160,490,7920,490C7680,490,7440,490,7200,490C6960,490,6720,490,6480,490C6240,490,6000,490,5760,490C5520,490,5280,490,5040,490C4800,490,4560,490,4320,490C4080,490,3840,490,3600,490C3360,490,3120,490,2880,490C2640,490,2400,490,2160,490C1920,490,1680,490,1440,490C1200,490,960,490,720,490C480,490,240,490,120,490L0,490Z"/></svg>